<svg width="1428" height="900" viewBox="0 0 1428 900" fill="none" xmlns="http://www.w3.org/2000/svg">
<rect width="1428" height="900" fill="#141416"/>
<rect x="148" y="117" width="365" height="64" rx="8" fill="#F0FF83"/>
<path d="M197.376 140.544H187.008V146.016C187.456 145.461 188.096 145.013 188.928 144.672C189.76 144.309 190.645 144.128 191.584 144.128C193.291 144.128 194.688 144.501 195.776 145.248C196.864 145.995 197.653 146.955 198.144 148.128C198.635 149.28 198.88 150.517 198.88 151.84C198.88 154.293 198.176 156.267 196.768 157.76C195.381 159.253 193.397 160 190.816 160C188.384 160 186.443 159.392 184.992 158.176C183.541 156.96 182.72 155.371 182.528 153.408H186.88C187.072 154.261 187.499 154.944 188.16 155.456C188.843 155.968 189.707 156.224 190.752 156.224C192.011 156.224 192.96 155.829 193.6 155.04C194.24 154.251 194.56 153.205 194.56 151.904C194.56 150.581 194.229 149.579 193.568 148.896C192.928 148.192 191.979 147.84 190.72 147.84C189.824 147.84 189.077 148.064 188.48 148.512C187.883 148.96 187.456 149.557 187.2 150.304H182.912V136.608H197.376V140.544ZM220.235 137.664C222.581 137.664 224.64 138.123 226.411 139.04C228.203 139.957 229.579 141.269 230.539 142.976C231.52 144.661 232.011 146.624 232.011 148.864C232.011 151.104 231.52 153.067 230.539 154.752C229.579 156.416 228.203 157.707 226.411 158.624C224.64 159.541 222.581 160 220.235 160H212.427V137.664H220.235ZM220.075 156.192C222.421 156.192 224.235 155.552 225.515 154.272C226.795 152.992 227.435 151.189 227.435 148.864C227.435 146.539 226.795 144.725 225.515 143.424C224.235 142.101 222.421 141.44 220.075 141.44H216.907V156.192H220.075ZM250.06 155.744H241.164L239.692 160H234.988L243.02 137.632H248.236L256.268 160H251.532L250.06 155.744ZM248.844 152.16L245.612 142.816L242.38 152.16H248.844ZM278.031 137.664L270.479 152.224V160H265.999V152.224L258.415 137.664H263.471L268.271 147.872L273.039 137.664H278.031ZM306.527 144.576C306.527 145.771 306.239 146.891 305.663 147.936C305.109 148.981 304.223 149.824 303.007 150.464C301.813 151.104 300.298 151.424 298.463 151.424H294.719V160H290.239V137.664H298.463C300.191 137.664 301.663 137.963 302.879 138.56C304.095 139.157 305.002 139.979 305.599 141.024C306.218 142.069 306.527 143.253 306.527 144.576ZM298.271 147.808C299.509 147.808 300.426 147.531 301.023 146.976C301.621 146.4 301.919 145.6 301.919 144.576C301.919 142.4 300.703 141.312 298.271 141.312H294.719V147.808H298.271ZM322.228 160L317.3 151.296H315.188V160H310.708V137.664H319.092C320.82 137.664 322.292 137.973 323.508 138.592C324.724 139.189 325.631 140.011 326.228 141.056C326.847 142.08 327.156 143.232 327.156 144.512C327.156 145.984 326.729 147.317 325.876 148.512C325.023 149.685 323.753 150.496 322.068 150.944L327.412 160H322.228ZM315.188 147.936H318.932C320.148 147.936 321.055 147.648 321.652 147.072C322.249 146.475 322.548 145.653 322.548 144.608C322.548 143.584 322.249 142.795 321.652 142.24C321.055 141.664 320.148 141.376 318.932 141.376H315.188V147.936ZM342.576 160.224C340.485 160.224 338.565 159.733 336.816 158.752C335.067 157.771 333.68 156.416 332.656 154.688C331.632 152.939 331.12 150.965 331.12 148.768C331.12 146.592 331.632 144.64 332.656 142.912C333.68 141.163 335.067 139.797 336.816 138.816C338.565 137.835 340.485 137.344 342.576 137.344C344.688 137.344 346.608 137.835 348.336 138.816C350.085 139.797 351.461 141.163 352.464 142.912C353.488 144.64 354 146.592 354 148.768C354 150.965 353.488 152.939 352.464 154.688C351.461 156.416 350.085 157.771 348.336 158.752C346.587 159.733 344.667 160.224 342.576 160.224ZM342.576 156.224C343.92 156.224 345.104 155.925 346.128 155.328C347.152 154.709 347.952 153.835 348.528 152.704C349.104 151.573 349.392 150.261 349.392 148.768C349.392 147.275 349.104 145.973 348.528 144.864C347.952 143.733 347.152 142.869 346.128 142.272C345.104 141.675 343.92 141.376 342.576 141.376C341.232 141.376 340.037 141.675 338.992 142.272C337.968 142.869 337.168 143.733 336.592 144.864C336.016 145.973 335.728 147.275 335.728 148.768C335.728 150.261 336.016 151.573 336.592 152.704C337.168 153.835 337.968 154.709 338.992 155.328C340.037 155.925 341.232 156.224 342.576 156.224ZM373.533 137.664V141.28H367.581V160H363.101V141.28H357.149V137.664H373.533ZM388.17 160.224C386.079 160.224 384.159 159.733 382.41 158.752C380.66 157.771 379.274 156.416 378.25 154.688C377.226 152.939 376.714 150.965 376.714 148.768C376.714 146.592 377.226 144.64 378.25 142.912C379.274 141.163 380.66 139.797 382.41 138.816C384.159 137.835 386.079 137.344 388.17 137.344C390.282 137.344 392.202 137.835 393.93 138.816C395.679 139.797 397.055 141.163 398.058 142.912C399.082 144.64 399.594 146.592 399.594 148.768C399.594 150.965 399.082 152.939 398.058 154.688C397.055 156.416 395.679 157.771 393.93 158.752C392.18 159.733 390.26 160.224 388.17 160.224ZM388.17 156.224C389.514 156.224 390.698 155.925 391.722 155.328C392.746 154.709 393.546 153.835 394.122 152.704C394.698 151.573 394.986 150.261 394.986 148.768C394.986 147.275 394.698 145.973 394.122 144.864C393.546 143.733 392.746 142.869 391.722 142.272C390.698 141.675 389.514 141.376 388.17 141.376C386.826 141.376 385.631 141.675 384.586 142.272C383.562 142.869 382.762 143.733 382.186 144.864C381.61 145.973 381.322 147.275 381.322 148.768C381.322 150.261 381.61 151.573 382.186 152.704C382.762 153.835 383.562 154.709 384.586 155.328C385.631 155.925 386.826 156.224 388.17 156.224ZM419.127 137.664V141.28H413.175V160H408.695V141.28H402.743V137.664H419.127ZM441.156 137.664L433.604 152.224V160H429.124V152.224L421.54 137.664H426.596L431.396 147.872L436.164 137.664H441.156ZM461.027 144.576C461.027 145.771 460.739 146.891 460.163 147.936C459.609 148.981 458.723 149.824 457.507 150.464C456.313 151.104 454.798 151.424 452.963 151.424H449.219V160H444.739V137.664H452.963C454.691 137.664 456.163 137.963 457.379 138.56C458.595 139.157 459.502 139.979 460.099 141.024C460.718 142.069 461.027 143.253 461.027 144.576ZM452.771 147.808C454.009 147.808 454.926 147.531 455.523 146.976C456.121 146.4 456.419 145.6 456.419 144.576C456.419 142.4 455.203 141.312 452.771 141.312H449.219V147.808H452.771ZM469.688 141.28V146.88H477.208V150.432H469.688V156.352H478.168V160H465.208V137.632H478.168V141.28H469.688Z" fill="#141416"/>
<rect x="521" y="117" width="260" height="64" rx="8" fill="#343336"/>
<path d="M565.128 161.852C558.728 161.852 554.376 157.084 554.376 150.044C554.376 143.004 558.792 138.204 565.256 138.204C570.184 138.204 574.056 141.18 574.984 145.724H572.52C571.56 142.428 568.744 140.412 565.16 140.412C560.136 140.412 556.776 144.252 556.776 150.044C556.776 155.804 560.136 159.644 565.16 159.644C568.776 159.644 571.656 157.692 572.648 154.62H575.112C574.056 158.94 570.056 161.852 565.128 161.852ZM600.513 150.044C600.513 156.988 596.001 161.884 589.601 161.884C583.169 161.884 578.689 156.988 578.689 150.044C578.689 143.1 583.201 138.172 589.601 138.172C596.033 138.172 600.513 143.068 600.513 150.044ZM598.145 150.044C598.145 144.316 594.657 140.412 589.601 140.412C584.545 140.412 581.089 144.316 581.089 150.044C581.089 155.772 584.545 159.676 589.601 159.676C594.657 159.676 598.145 155.74 598.145 150.044ZM607.962 161.5H605.69V138.588H607.962L616.314 158.78L624.666 138.588H626.97V161.5H624.698V150.62C624.698 146.62 624.762 144.86 624.89 143.292L617.434 161.5H615.226L607.77 143.388C607.898 144.252 607.962 146.78 607.962 150.268V161.5ZM642.27 153.084H635.838V161.5H633.534V138.588H642.27C646.686 138.588 649.47 141.468 649.47 145.788C649.47 149.948 646.654 153.084 642.27 153.084ZM641.95 140.668H635.838V151.004H641.822C645.15 151.004 647.07 148.892 647.07 145.756C647.07 142.588 645.118 140.668 641.95 140.668ZM656.494 138.588V159.388H667.022V161.5H654.19V138.588H656.494ZM685.2 161.5H671.472V138.588H685.168V140.7H673.776V148.956H684.112V151.036H673.776V159.388H685.2V161.5ZM688.478 140.7V138.588H704.894V140.7H697.822V161.5H695.518V140.7H688.478ZM722.793 161.5H709.065V138.588H722.761V140.7H711.369V148.956H721.705V151.036H711.369V159.388H722.793V161.5ZM735.448 161.5H728.472V138.588H735.384C742.296 138.588 746.904 143.196 746.904 150.044C746.904 156.892 742.328 161.5 735.448 161.5ZM735.288 140.7H730.776V159.388H735.352C740.952 159.388 744.536 155.74 744.536 150.044C744.536 144.316 740.952 140.7 735.288 140.7Z" fill="white"/>
<path d="M166.72 339V337.8L171.64 336.6C174.92 335.88 176.56 333.88 176.56 330.6V262.2H166.36C163.4 262.2 161.28 263 160 264.6C158.72 266.12 157.36 268.24 155.92 270.96L151.6 279.36H150.4L151 259.8H220.24L220.72 279.36H219.52L215.2 270.96C213.84 268.24 212.52 266.12 211.24 264.6C209.96 263 207.84 262.2 204.88 262.2H194.68V330.6C194.68 333.88 196.32 335.88 199.6 336.6L204.52 337.8V339H166.72ZM241.614 279.48C246.814 279.48 251.254 280.56 254.934 282.72C258.614 284.8 261.414 287.68 263.334 291.36C265.334 294.96 266.334 299.08 266.334 303.72C266.334 304.6 266.294 305.52 266.214 306.48C266.134 307.36 265.974 308.16 265.734 308.88H229.974C230.054 317.52 231.574 323.76 234.534 327.6C237.574 331.36 242.054 333.24 247.974 333.24C251.974 333.24 255.214 332.6 257.694 331.32C260.174 330.04 262.494 328.16 264.654 325.68L265.854 326.76C263.374 331.16 260.054 334.6 255.894 337.08C251.814 339.56 246.894 340.8 241.134 340.8C235.454 340.8 230.414 339.6 226.014 337.2C221.614 334.72 218.174 331.2 215.694 326.64C213.214 322.08 211.974 316.64 211.974 310.32C211.974 303.76 213.414 298.2 216.294 293.64C219.174 289 222.854 285.48 227.334 283.08C231.894 280.68 236.654 279.48 241.614 279.48ZM241.254 281.88C238.934 281.88 236.934 282.6 235.254 284.04C233.654 285.4 232.374 287.88 231.414 291.48C230.534 295 230.054 300 229.974 306.48H250.494C251.294 297.76 250.974 291.48 249.534 287.64C248.094 283.8 245.334 281.88 241.254 281.88ZM267.314 339V337.8L269.114 337.32C270.714 336.84 271.794 336.12 272.354 335.16C272.994 334.2 273.314 332.96 273.314 331.44V293.88C273.314 292.12 272.994 290.84 272.354 290.04C271.794 289.16 270.714 288.56 269.114 288.24L267.314 287.76V286.56L287.954 279.6L289.154 280.8L290.234 291.12V292.08C291.354 289.84 292.794 287.8 294.554 285.96C296.394 284.04 298.394 282.48 300.554 281.28C302.794 280.08 304.994 279.48 307.154 279.48C310.194 279.48 312.514 280.32 314.114 282C315.714 283.68 316.514 285.8 316.514 288.36C316.514 291.08 315.714 293.2 314.114 294.72C312.594 296.16 310.754 296.88 308.594 296.88C305.234 296.88 302.274 295.2 299.714 291.84L299.474 291.6C298.674 290.48 297.754 289.88 296.714 289.8C295.674 289.64 294.714 290.12 293.834 291.24C293.034 291.96 292.354 292.84 291.794 293.88C291.314 294.84 290.834 295.96 290.354 297.24V330.72C290.354 333.92 291.754 335.92 294.554 336.72L298.394 337.8V339H267.314ZM315.283 339V337.8L317.083 337.32C318.683 336.84 319.763 336.12 320.323 335.16C320.963 334.2 321.283 332.96 321.283 331.44V293.88C321.283 292.12 320.963 290.84 320.323 290.04C319.763 289.16 318.683 288.56 317.083 288.24L315.283 287.76V286.56L335.923 279.6L337.123 280.8L338.203 291.12V292.08C339.323 289.84 340.763 287.8 342.523 285.96C344.363 284.04 346.363 282.48 348.523 281.28C350.763 280.08 352.963 279.48 355.123 279.48C358.163 279.48 360.483 280.32 362.083 282C363.683 283.68 364.483 285.8 364.483 288.36C364.483 291.08 363.683 293.2 362.083 294.72C360.563 296.16 358.723 296.88 356.563 296.88C353.203 296.88 350.243 295.2 347.683 291.84L347.443 291.6C346.643 290.48 345.723 289.88 344.683 289.8C343.643 289.64 342.683 290.12 341.803 291.24C341.003 291.96 340.323 292.84 339.763 293.88C339.283 294.84 338.803 295.96 338.323 297.24V330.72C338.323 333.92 339.723 335.92 342.523 336.72L346.363 337.8V339H315.283ZM378.193 340.8C373.553 340.8 369.633 339.48 366.433 336.84C363.313 334.2 361.753 330.4 361.753 325.44C361.753 321.68 363.673 318.24 367.513 315.12C371.353 311.92 377.393 309.52 385.633 307.92C386.913 307.68 388.353 307.44 389.953 307.2C391.553 306.88 393.233 306.56 394.993 306.24V296.76C394.993 291.32 394.313 287.52 392.953 285.36C391.673 283.12 389.633 282 386.833 282C384.913 282 383.393 282.64 382.273 283.92C381.153 285.12 380.433 287.24 380.113 290.28L379.873 291.6C379.713 295.04 378.873 297.56 377.353 299.16C375.833 300.76 373.953 301.56 371.713 301.56C369.633 301.56 367.913 300.92 366.553 299.64C365.193 298.36 364.513 296.64 364.513 294.48C364.513 291.2 365.633 288.44 367.873 286.2C370.193 283.96 373.233 282.28 376.993 281.16C380.753 280.04 384.833 279.48 389.233 279.48C396.353 279.48 401.833 281.24 405.673 284.76C409.593 288.2 411.553 293.84 411.553 301.68V328.2C411.553 331.8 413.233 333.6 416.593 333.6H419.233L420.313 334.56C418.793 336.48 417.113 337.96 415.273 339C413.513 340.04 410.993 340.56 407.713 340.56C404.193 340.56 401.393 339.76 399.313 338.16C397.313 336.48 395.993 334.28 395.353 331.56C392.953 334.12 390.473 336.32 387.913 338.16C385.433 339.92 382.193 340.8 378.193 340.8ZM385.513 333.48C387.113 333.48 388.593 333.12 389.953 332.4C391.393 331.6 393.073 330.4 394.993 328.8V308.64C394.193 308.8 393.393 308.96 392.593 309.12C391.793 309.28 390.873 309.44 389.833 309.6C386.153 310.56 383.193 312.2 380.953 314.52C378.793 316.76 377.713 319.8 377.713 323.64C377.713 326.92 378.473 329.4 379.993 331.08C381.513 332.68 383.353 333.48 385.513 333.48ZM439.156 339V337.8L441.316 337.08C442.916 336.52 443.996 335.76 444.556 334.8C445.116 333.84 445.396 332.56 445.396 330.96C445.476 326.16 445.516 321.32 445.516 316.44C445.516 311.56 445.516 306.68 445.516 301.8V297C445.516 292.2 445.516 287.4 445.516 282.6C445.516 277.72 445.476 272.88 445.396 268.08C445.396 266.48 445.156 265.2 444.676 264.24C444.276 263.28 443.316 262.52 441.796 261.96L439.156 261V259.8H497.236L498.076 279.72H496.876L490.036 267.12C489.236 265.6 488.316 264.4 487.276 263.52C486.236 262.64 484.796 262.2 482.956 262.2H463.636C463.556 267.88 463.516 273.68 463.516 279.6C463.516 285.52 463.516 291.4 463.516 297.24H475.996C477.836 297.24 479.196 296.84 480.076 296.04C480.956 295.24 481.796 294.08 482.596 292.56L485.116 288H486.316V309H485.116L482.476 304.44C481.676 303 480.836 301.84 479.956 300.96C479.156 300.08 477.836 299.64 475.996 299.64H463.516C463.516 305.24 463.516 310.6 463.516 315.72C463.516 320.76 463.556 325.72 463.636 330.6C463.636 333.72 465.156 335.76 468.196 336.72L471.796 337.8V339H439.156ZM522.752 340.8C516.672 340.8 511.392 339.56 506.912 337.08C502.432 334.52 498.952 330.92 496.472 326.28C494.072 321.64 492.872 316.2 492.872 309.96C492.872 303.72 494.152 298.32 496.712 293.76C499.352 289.2 502.912 285.68 507.392 283.2C511.952 280.72 517.072 279.48 522.752 279.48C528.432 279.48 533.512 280.72 537.992 283.2C542.472 285.6 545.992 289.08 548.552 293.64C551.192 298.2 552.512 303.64 552.512 309.96C552.512 316.28 551.272 321.76 548.792 326.4C546.392 330.96 542.952 334.52 538.472 337.08C534.072 339.56 528.832 340.8 522.752 340.8ZM522.752 338.4C525.552 338.4 527.792 337.6 529.472 336C531.152 334.4 532.352 331.56 533.072 327.48C533.872 323.4 534.272 317.64 534.272 310.2C534.272 302.68 533.872 296.88 533.072 292.8C532.352 288.72 531.152 285.88 529.472 284.28C527.792 282.68 525.552 281.88 522.752 281.88C519.952 281.88 517.672 282.68 515.912 284.28C514.232 285.88 512.992 288.72 512.192 292.8C511.472 296.88 511.112 302.68 511.112 310.2C511.112 317.64 511.472 323.4 512.192 327.48C512.992 331.56 514.232 334.4 515.912 336C517.672 337.6 519.952 338.4 522.752 338.4ZM552.783 339V337.8L554.583 337.32C556.183 336.84 557.263 336.12 557.823 335.16C558.463 334.2 558.783 332.96 558.783 331.44V293.88C558.783 292.12 558.463 290.84 557.823 290.04C557.263 289.16 556.183 288.56 554.583 288.24L552.783 287.76V286.56L573.423 279.6L574.623 280.8L575.703 291.12V292.08C576.823 289.84 578.263 287.8 580.023 285.96C581.863 284.04 583.863 282.48 586.023 281.28C588.263 280.08 590.463 279.48 592.623 279.48C595.663 279.48 597.983 280.32 599.583 282C601.183 283.68 601.983 285.8 601.983 288.36C601.983 291.08 601.183 293.2 599.583 294.72C598.063 296.16 596.223 296.88 594.063 296.88C590.703 296.88 587.743 295.2 585.183 291.84L584.943 291.6C584.143 290.48 583.223 289.88 582.183 289.8C581.143 289.64 580.183 290.12 579.303 291.24C578.503 291.96 577.823 292.84 577.263 293.88C576.783 294.84 576.303 295.96 575.823 297.24V330.72C575.823 333.92 577.223 335.92 580.023 336.72L583.863 337.8V339H552.783ZM624.606 340.8C619.486 340.8 615.486 339.52 612.606 336.96C609.806 334.4 608.406 330.32 608.406 324.72V283.68H600.126V282.48L603.006 282C605.486 281.44 607.606 280.64 609.366 279.6C611.206 278.56 613.006 277.16 614.766 275.4L624.606 264.48H625.806L625.446 281.28H638.886V283.68H625.326V326.88C625.326 329.68 625.926 331.8 627.126 333.24C628.406 334.68 630.006 335.4 631.926 335.4C633.606 335.4 635.086 335 636.366 334.2C637.646 333.32 638.926 332.16 640.206 330.72L641.406 331.92C639.806 334.64 637.606 336.8 634.806 338.4C632.006 340 628.606 340.8 624.606 340.8ZM654.566 273.24C651.846 273.24 649.526 272.4 647.606 270.72C645.766 268.96 644.846 266.76 644.846 264.12C644.846 261.4 645.766 259.2 647.606 257.52C649.526 255.84 651.846 255 654.566 255C657.286 255 659.566 255.84 661.406 257.52C663.246 259.2 664.166 261.4 664.166 264.12C664.166 266.76 663.246 268.96 661.406 270.72C659.566 272.4 657.286 273.24 654.566 273.24ZM640.406 339V337.8L642.086 337.32C643.686 336.84 644.766 336.12 645.326 335.16C645.966 334.2 646.286 332.92 646.286 331.32V293.76C646.286 292.08 645.966 290.84 645.326 290.04C644.766 289.16 643.686 288.56 642.086 288.24L640.406 287.88V286.68L662.366 279.6L663.566 280.8L663.206 297.84V331.44C663.206 333.04 663.486 334.32 664.046 335.28C664.686 336.24 665.766 336.96 667.286 337.44L668.486 337.8V339H640.406ZM689.558 340.8C685.638 340.8 682.118 340.32 678.998 339.36C675.878 338.48 672.998 337.36 670.358 336L670.478 321.72H671.678L675.758 328.92C677.518 332.12 679.438 334.52 681.518 336.12C683.678 337.64 686.398 338.4 689.678 338.4C693.518 338.4 696.598 337.56 698.918 335.88C701.318 334.12 702.518 331.8 702.518 328.92C702.518 326.28 701.678 324.12 699.998 322.44C698.318 320.76 695.198 319.24 690.638 317.88L685.598 316.32C680.718 314.88 676.878 312.64 674.078 309.6C671.278 306.56 669.878 302.84 669.878 298.44C669.878 293.16 671.958 288.68 676.118 285C680.278 281.32 686.238 279.48 693.998 279.48C697.118 279.48 700.038 279.84 702.758 280.56C705.558 281.2 708.238 282.2 710.798 283.56L710.078 296.52H708.878L704.678 289.08C703.158 286.44 701.638 284.6 700.118 283.56C698.678 282.44 696.478 281.88 693.518 281.88C690.798 281.88 688.238 282.64 685.838 284.16C683.438 285.68 682.238 287.84 682.238 290.64C682.238 293.36 683.238 295.52 685.238 297.12C687.318 298.72 690.358 300.2 694.358 301.56L699.758 303.12C705.518 304.88 709.638 307.32 712.118 310.44C714.598 313.48 715.838 317.16 715.838 321.48C715.838 327.32 713.518 332 708.878 335.52C704.318 339.04 697.878 340.8 689.558 340.8Z" fill="#FBFAFF"/>
<path d="M151.18 731H149.74V716.68H155.08C157.98 716.68 159.74 718.28 159.74 720.82C159.74 722.88 158.66 724.32 156.82 724.82L159.88 731H158.28L155.36 725.06H151.18V731ZM151.18 717.98V723.76H155.12C157.1 723.76 158.26 722.68 158.26 720.86C158.26 719 157.04 717.98 155.08 717.98H151.18ZM173.113 731H164.533V716.68H173.093V718H165.973V723.16H172.433V724.46H165.973V729.68H173.113V731ZM177.177 720.4C177.177 718 179.097 716.42 181.977 716.42C184.557 716.42 186.257 717.86 186.477 720.26H185.017C184.857 718.64 183.757 717.72 181.957 717.72C179.937 717.72 178.617 718.76 178.617 720.38C178.617 721.64 179.357 722.44 180.857 722.82L183.317 723.42C185.557 723.96 186.717 725.24 186.717 727.18C186.717 729.66 184.797 731.24 181.837 731.24C179.057 731.24 177.177 729.78 176.997 727.44H178.477C178.557 728.94 179.877 729.92 181.837 729.92C183.937 729.92 185.277 728.9 185.277 727.26C185.277 725.98 184.557 725.14 183.017 724.78L180.597 724.18C178.357 723.64 177.177 722.36 177.177 720.4ZM196.766 725.74H192.746V731H191.306V716.68H196.766C199.526 716.68 201.266 718.48 201.266 721.18C201.266 723.78 199.506 725.74 196.766 725.74ZM196.566 717.98H192.746V724.44H196.486C198.566 724.44 199.766 723.12 199.766 721.16C199.766 719.18 198.546 717.98 196.566 717.98ZM218.352 723.84C218.352 728.18 215.532 731.24 211.532 731.24C207.512 731.24 204.712 728.18 204.712 723.84C204.712 719.5 207.532 716.42 211.532 716.42C215.552 716.42 218.352 719.48 218.352 723.84ZM216.872 723.84C216.872 720.26 214.692 717.82 211.532 717.82C208.372 717.82 206.212 720.26 206.212 723.84C206.212 727.42 208.372 729.86 211.532 729.86C214.692 729.86 216.872 727.4 216.872 723.84ZM224.403 731H222.963V716.68H224.423L232.303 728.6V716.68H233.723V731H232.303L224.403 719.08V731ZM238.204 720.4C238.204 718 240.124 716.42 243.004 716.42C245.584 716.42 247.284 717.86 247.504 720.26H246.044C245.884 718.64 244.784 717.72 242.984 717.72C240.964 717.72 239.644 718.76 239.644 720.38C239.644 721.64 240.384 722.44 241.884 722.82L244.344 723.42C246.584 723.96 247.744 725.24 247.744 727.18C247.744 729.66 245.824 731.24 242.864 731.24C240.084 731.24 238.204 729.78 238.024 727.44H239.504C239.584 728.94 240.904 729.92 242.864 729.92C244.964 729.92 246.304 728.9 246.304 727.26C246.304 725.98 245.584 725.14 244.044 724.78L241.624 724.18C239.384 723.64 238.204 722.36 238.204 720.4ZM253.774 716.68V731H252.334V716.68H253.774ZM259.256 731V716.68H264.496C267.256 716.68 268.956 718.08 268.956 720.38C268.956 722.06 268.216 723.2 266.736 723.78C268.396 724.32 269.236 725.48 269.236 727.24C269.236 729.54 267.516 731 264.796 731H259.256ZM264.476 717.96H260.696V723.2H264.656C266.456 723.2 267.476 722.2 267.476 720.5C267.476 718.9 266.396 717.96 264.476 717.96ZM264.796 724.46H260.696V729.7H264.796C266.676 729.7 267.776 728.72 267.776 727.06C267.776 725.44 266.656 724.46 264.796 724.46ZM275.274 716.68V729.68H281.854V731H273.834V716.68H275.274ZM294.59 731H286.01V716.68H294.57V718H287.45V723.16H293.91V724.46H287.45V729.68H294.59V731ZM311.42 731H307.06V716.68H311.38C315.7 716.68 318.58 719.56 318.58 723.84C318.58 728.12 315.72 731 311.42 731ZM311.32 718H308.5V729.68H311.36C314.86 729.68 317.1 727.4 317.1 723.84C317.1 720.26 314.86 718 311.32 718ZM331.761 731H323.181V716.68H331.741V718H324.621V723.16H331.081V724.46H324.621V729.68H331.761V731ZM335.825 720.4C335.825 718 337.745 716.42 340.625 716.42C343.205 716.42 344.905 717.86 345.125 720.26H343.665C343.505 718.64 342.405 717.72 340.605 717.72C338.585 717.72 337.265 718.76 337.265 720.38C337.265 721.64 338.005 722.44 339.505 722.82L341.965 723.42C344.205 723.96 345.365 725.24 345.365 727.18C345.365 729.66 343.445 731.24 340.485 731.24C337.705 731.24 335.825 729.78 335.645 727.44H337.125C337.205 728.94 338.525 729.92 340.485 729.92C342.585 729.92 343.925 728.9 343.925 727.26C343.925 725.98 343.205 725.14 341.665 724.78L339.245 724.18C337.005 723.64 335.825 722.36 335.825 720.4ZM351.395 716.68V731H349.955V716.68H351.395ZM362.877 717.8C359.577 717.8 357.497 720.24 357.497 723.9C357.497 727.62 359.697 729.88 362.917 729.88C365.317 729.88 367.657 728.72 367.657 725.28V724.54H362.477V723.26H369.017V731.02H367.877L367.737 728.74C366.977 730.16 365.177 731.24 362.857 731.24C358.797 731.24 355.997 728.32 355.997 723.9C355.997 719.52 358.797 716.44 362.897 716.44C365.917 716.44 368.257 718.16 368.817 720.76H367.257C366.657 718.8 364.977 717.8 362.877 717.8ZM375.317 731H373.877V716.68H375.337L383.217 728.6V716.68H384.637V731H383.217L375.317 719.08V731ZM398.715 731H390.135V716.68H398.695V718H391.575V723.16H398.035V724.46H391.575V729.68H398.715V731ZM405.078 731H403.638V716.68H408.978C411.878 716.68 413.638 718.28 413.638 720.82C413.638 722.88 412.558 724.32 410.718 724.82L413.778 731H412.178L409.258 725.06H405.078V731ZM405.078 717.98V723.76H409.018C410.998 723.76 412.158 722.68 412.158 720.86C412.158 719 410.938 717.98 408.978 717.98H405.078ZM421.771 734.14H420.511C418.831 731.84 417.731 728.44 417.731 725C417.731 721.7 418.791 718.26 420.511 715.88H421.771C420.231 718.04 419.151 721.4 419.151 725C419.151 728.52 420.191 731.94 421.771 734.14ZM424.65 720.4C424.65 718 426.57 716.42 429.45 716.42C432.03 716.42 433.73 717.86 433.95 720.26H432.49C432.33 718.64 431.23 717.72 429.43 717.72C427.41 717.72 426.09 718.76 426.09 720.38C426.09 721.64 426.83 722.44 428.33 722.82L430.79 723.42C433.03 723.96 434.19 725.24 434.19 727.18C434.19 729.66 432.27 731.24 429.31 731.24C426.53 731.24 424.65 729.78 424.47 727.44H425.95C426.03 728.94 427.35 729.92 429.31 729.92C431.41 729.92 432.75 728.9 432.75 727.26C432.75 725.98 432.03 725.14 430.49 724.78L428.07 724.18C425.83 723.64 424.65 722.36 424.65 720.4ZM438.299 734.14H437.039C438.619 731.94 439.679 728.52 439.679 725C439.679 721.4 438.579 718.04 437.039 715.88H438.299C440.039 718.26 441.079 721.7 441.079 725C441.079 728.44 439.979 731.84 438.299 734.14Z" fill="white"/>
<path d="M153.096 754.756V772.452H162V775H150.352V754.756H153.096ZM172.167 775.336C168.135 775.336 165.363 772.424 165.363 768.168C165.363 763.884 168.079 760.916 172.055 760.916C175.947 760.916 178.495 763.604 178.495 767.664V768.644L167.911 768.672C168.107 771.556 169.619 773.152 172.223 773.152C174.267 773.152 175.611 772.312 176.059 770.744H178.523C177.851 773.684 175.555 775.336 172.167 775.336ZM172.055 763.128C169.759 763.128 168.303 764.5 167.967 766.908H175.863C175.863 764.64 174.379 763.128 172.055 763.128ZM182.539 768.14C182.539 763.912 185.563 760.944 189.679 760.944C193.767 760.944 196.791 763.912 196.791 768.14C196.791 772.368 193.767 775.336 189.679 775.336C185.563 775.336 182.539 772.368 182.539 768.14ZM185.199 768.14C185.199 770.996 187.019 772.984 189.679 772.984C192.311 772.984 194.159 770.996 194.159 768.14C194.159 765.284 192.311 763.296 189.679 763.296C187.019 763.296 185.199 765.284 185.199 768.14ZM204.337 775H201.705V761.308H204.085L204.365 763.408C205.233 761.84 206.969 760.916 208.901 760.916C212.513 760.916 214.165 763.128 214.165 766.628V775H211.533V767.216C211.533 764.444 210.245 763.324 208.229 763.324C205.765 763.324 204.337 765.088 204.337 767.748V775ZM223.814 775.336C220.874 775.336 219.138 773.684 219.138 771.192C219.138 768.672 221.014 767.104 224.234 766.852L228.546 766.516V766.124C228.546 763.828 227.174 763.016 225.326 763.016C223.114 763.016 221.854 763.996 221.854 765.648H219.558C219.558 762.792 221.91 760.916 225.438 760.916C228.826 760.916 231.122 762.708 231.122 766.404V775H228.882L228.602 772.788C227.902 774.356 226.026 775.336 223.814 775.336ZM224.57 773.292C227.062 773.292 228.574 771.668 228.574 769.092V768.364L225.074 768.644C222.75 768.868 221.798 769.764 221.798 771.108C221.798 772.564 222.862 773.292 224.57 773.292ZM244.607 761.196V763.604H243.431C240.939 763.604 239.399 765.116 239.399 767.748V775H236.767V761.336H239.231L239.399 763.408C239.959 761.98 241.331 761.028 243.207 761.028C243.683 761.028 244.075 761.084 244.607 761.196ZM254.072 775.336C250.096 775.336 247.688 772.368 247.688 768.196C247.688 763.996 250.124 760.916 254.184 760.916C256.284 760.916 258.048 761.84 258.972 763.52V754.392H261.576V775H259.224L259 772.508C258.104 774.384 256.256 775.336 254.072 775.336ZM254.604 772.956C257.292 772.956 258.944 770.968 258.944 768.112C258.944 765.312 257.292 763.296 254.604 763.296C251.916 763.296 250.348 765.312 250.348 768.112C250.348 770.94 251.916 772.956 254.604 772.956ZM266.477 768.14C266.477 763.912 269.501 760.944 273.617 760.944C277.705 760.944 280.729 763.912 280.729 768.14C280.729 772.368 277.705 775.336 273.617 775.336C269.501 775.336 266.477 772.368 266.477 768.14ZM269.137 768.14C269.137 770.996 270.957 772.984 273.617 772.984C276.249 772.984 278.097 770.996 278.097 768.14C278.097 765.284 276.249 763.296 273.617 763.296C270.957 763.296 269.137 765.284 269.137 768.14Z" fill="white"/>
<path d="M304.656 771.612C302.416 771.612 300.512 769.764 300.512 767.552C300.512 765.34 302.416 763.436 304.656 763.436C306.896 763.436 308.744 765.34 308.744 767.552C308.744 769.764 306.868 771.612 304.656 771.612Z" fill="white"/>
<path d="M339.032 756.996C334.664 756.996 332.032 760.216 332.032 765.004C332.032 769.904 334.888 772.732 339.06 772.732C342.504 772.732 345.276 770.968 345.276 766.88V766.292H338.5V763.856H347.852V775.028H345.556L345.36 772.284C344.268 774.048 341.804 775.336 338.836 775.336C333.096 775.336 329.148 771.192 329.148 764.948C329.148 758.788 333.124 754.42 339.088 754.42C343.512 754.42 346.956 756.968 347.628 760.86H344.716C343.96 758.284 341.72 756.996 339.032 756.996ZM354.602 758.06C353.65 758.06 352.866 757.276 352.866 756.324C352.866 755.344 353.65 754.588 354.602 754.588C355.554 754.588 356.338 755.344 356.338 756.324C356.338 757.276 355.554 758.06 354.602 758.06ZM353.314 775V761.308H355.946V775H353.314ZM360.871 768.14C360.871 763.912 363.895 760.944 368.011 760.944C372.099 760.944 375.123 763.912 375.123 768.14C375.123 772.368 372.099 775.336 368.011 775.336C363.895 775.336 360.871 772.368 360.871 768.14ZM363.531 768.14C363.531 770.996 365.351 772.984 368.011 772.984C370.643 772.984 372.491 770.996 372.491 768.14C372.491 765.284 370.643 763.296 368.011 763.296C365.351 763.296 363.531 765.284 363.531 768.14ZM387.877 761.196V763.604H386.701C384.209 763.604 382.669 765.116 382.669 767.748V775H380.037V761.336H382.501L382.669 763.408C383.229 761.98 384.601 761.028 386.477 761.028C386.953 761.028 387.345 761.084 387.877 761.196ZM391.177 767.804C391.177 763.94 393.669 760.916 397.645 760.916C399.857 760.916 401.565 761.924 402.433 763.632L402.629 761.308H404.981V774.44C404.981 778.752 402.321 781.496 398.121 781.496C394.397 781.496 391.849 779.396 391.345 775.924H393.977C394.313 777.94 395.825 779.116 398.121 779.116C400.697 779.116 402.377 777.436 402.377 774.832V772.088C401.481 773.684 399.689 774.636 397.533 774.636C393.641 774.636 391.177 771.64 391.177 767.804ZM393.809 767.748C393.809 770.324 395.405 772.34 397.981 772.34C400.641 772.34 402.265 770.436 402.265 767.748C402.265 765.116 400.697 763.212 398.009 763.212C395.377 763.212 393.809 765.228 393.809 767.748ZM412.067 758.06C411.115 758.06 410.331 757.276 410.331 756.324C410.331 755.344 411.115 754.588 412.067 754.588C413.019 754.588 413.803 755.344 413.803 756.324C413.803 757.276 413.019 758.06 412.067 758.06ZM410.779 775V761.308H413.411V775H410.779ZM423.236 775.336C420.296 775.336 418.56 773.684 418.56 771.192C418.56 768.672 420.436 767.104 423.656 766.852L427.968 766.516V766.124C427.968 763.828 426.596 763.016 424.748 763.016C422.536 763.016 421.276 763.996 421.276 765.648H418.98C418.98 762.792 421.332 760.916 424.86 760.916C428.248 760.916 430.544 762.708 430.544 766.404V775H428.304L428.024 772.788C427.324 774.356 425.448 775.336 423.236 775.336ZM423.992 773.292C426.484 773.292 427.996 771.668 427.996 769.092V768.364L424.496 768.644C422.172 768.868 421.22 769.764 421.22 771.108C421.22 772.564 422.284 773.292 423.992 773.292ZM438.821 775H436.189V761.308H438.569L438.849 763.408C439.717 761.84 441.453 760.916 443.385 760.916C446.997 760.916 448.649 763.128 448.649 766.628V775H446.017V767.216C446.017 764.444 444.729 763.324 442.713 763.324C440.249 763.324 438.821 765.088 438.821 767.748V775ZM458.299 775.336C455.359 775.336 453.623 773.684 453.623 771.192C453.623 768.672 455.499 767.104 458.719 766.852L463.031 766.516V766.124C463.031 763.828 461.659 763.016 459.811 763.016C457.599 763.016 456.339 763.996 456.339 765.648H454.043C454.043 762.792 456.395 760.916 459.923 760.916C463.311 760.916 465.607 762.708 465.607 766.404V775H463.367L463.087 772.788C462.387 774.356 460.511 775.336 458.299 775.336ZM459.055 773.292C461.547 773.292 463.059 771.668 463.059 769.092V768.364L459.559 768.644C457.235 768.868 456.283 769.764 456.283 771.108C456.283 772.564 457.347 773.292 459.055 773.292Z" fill="white"/>
<g clip-path="url(#clip0_1_7979)">
<path d="M1145.75 731.335H1137.35C1137.35 725.178 1133.81 722.051 1127.43 722.051C1122.09 722.051 1118.77 724.575 1118.77 728.534C1118.77 732.98 1122.17 734.349 1130.08 736.254C1139.37 738.502 1147.14 740.897 1147.14 751.142C1147.14 760.166 1139.78 766.03 1128.69 766.03C1116.77 766.03 1109.48 760.085 1109.48 748.943H1118.01C1118.01 755.915 1121.89 759.254 1128.75 759.254C1134.92 759.254 1138.52 756.452 1138.52 751.875C1138.52 746.956 1134.92 745.865 1127.37 744.024C1118.01 741.711 1110.24 739.463 1110.24 729.283C1110.24 721.008 1117.1 715.34 1127.58 715.34C1139.58 715.34 1145.75 720.878 1145.75 731.335Z" fill="white"/>
<path d="M1204.79 743.633V765.02H1196.89V744.382C1196.89 738.225 1194.46 735.766 1190.51 735.766C1185.87 735.766 1183.09 739.659 1183.09 746.288V765.004H1175.19V743.552C1175.19 738.632 1172.97 735.766 1168.87 735.766C1164.16 735.766 1161.45 739.724 1161.45 746.418V765.004H1153.55V730.309H1161.1V734.479H1161.24C1163.73 731.123 1166.86 729.495 1171.01 729.495C1175.87 729.495 1179.6 731.677 1181.4 735.782C1183.97 731.824 1187.37 729.495 1192.71 729.495C1200.2 729.495 1204.78 734.283 1204.78 743.633" fill="white"/>
<path d="M1245.74 747.657C1245.74 758.733 1240.05 765.835 1231.11 765.835C1226.75 765.835 1222.79 763.847 1220.78 760.508H1220.65V777.66H1212.74V730.309H1220.45V735.098H1220.58C1222.66 731.547 1226.61 729.43 1231.04 729.43C1239.99 729.43 1245.74 736.597 1245.74 747.673M1220.22 747.673C1220.22 755.182 1223.62 759.84 1228.75 759.84C1233.87 759.84 1237.49 755.052 1237.49 747.673C1237.49 740.294 1234.09 735.505 1228.75 735.505C1223.41 735.505 1220.22 740.082 1220.22 747.673Z" fill="white"/>
<path d="M1259.97 716.366H1252.07V765.02H1259.97V716.366Z" fill="white"/>
<path d="M1277.73 715.991C1272.02 715.991 1267.41 720.536 1267.41 726.155C1267.41 731.775 1272.02 736.319 1277.73 736.319V715.991Z" fill="white"/>
<path d="M1303 726.155C1303 720.536 1298.39 715.991 1292.69 715.991C1286.98 715.991 1282.37 720.536 1282.37 726.155C1282.37 731.775 1286.98 736.319 1292.69 736.319C1298.39 736.319 1303 731.775 1303 726.155Z" fill="white"/>
</g>
<defs>
<clipPath id="clip0_1_7979">
<rect width="193.521" height="62.3203" fill="white" transform="translate(1109.48 715.34)"/>
</clipPath>
</defs>
</svg>
